# xmcd CD database file
#
# Track frame offsets:
#	150
#	20744
#	39427
#	57335
#	77426
#	95670
#	114297
#	132729
#	150751
#	167409
#	183939
#	202468
#	220585
#
# Disc length: 3081 seconds
#
# Revision: 51
# Processed by: cddbd v1.5.1PL0 Copyright (c) Steve Scherf et al.
# Submitted via: CDex 1.40Release
#
DISCID=a80c070d
DTITLE=Eros Ramazzotti - 9
DYEAR=2003
DGENRE=Latin
TTITLE0=Un Segundo De Paz
TTITLE1=Solo Ayer
TTITLE2=Una Emoción Para Siempre
TTITLE3=Revivirte Otra Vez
TTITLE4=La Noche Son Tus Ojos
TTITLE5=Un Ancla En El Viento
TTITLE6=Piedra Pequeña
TTITLE7=Mamará, Una Gran Mujer
TTITLE8=El Hombre Que Miraba Las Nubes
TTITLE9=Canción Para Ella
TTITLE10=No Te Prometo Nada
TTITLE11=Falsa Salida
TTITLE12=Hay Una Melodía
EXTD=YEAR: 2003 ID3G: 86
EXTT0=
EXTT1=
EXTT2=
EXTT3=
EXTT4=
EXTT5=
EXTT6=
EXTT7=
EXTT8=
EXTT9=
EXTT10=
EXTT11=
EXTT12=
PLAYORDER=
